<?xml version="1.0" encoding="UTF-8"?>
<svg version="1.1"
	xmlns="http://www.w3.org/2000/svg"
	xmlns:xlink="http://www.w3.org/1999/xlink"
	viewBox="10 0 50 28.7"
	width="83.4" height="28.7">
<g fill="#000">
<path
d="M32.5 18c1.5 0 2.6-1.2 2.6-2.6s-1.2-2.6-2.6-2.6c-1.5 0-2.6 1.2-2.6 2.6s1.2 2.6 2.6 2.6M13.3 12.8c-1.5 0-2.6 1.2-2.6 2.6s1.2 2.6 2.6 2.6c1.4 0 2.6-1.2 2.6-2.6s-1.2-2.6-2.6-2.6"
></path>
<path
d="M13.3 7.6c-4.3 0-7.8 3.5-7.8 7.8s3.5 7.8 7.8 7.8h19.5c4.3 0 7.8-3.5 7.8-7.8s-3.5-7.8-7.8-7.8H13.3m19.5 20.8H13.3c-7.2 0-13-5.8-13-13s5.8-13 13-13h19.5c7.2 0 13 5.8 13 13s-5.9 13-13 13"
></path>
</g>
</svg>